<?xml version="1.0" encoding="UTF-8" standalone="no" ?>
<!DOCTYPE svg PUBLIC "-//W3C//DTD SVG 1.1//EN" "http://www.w3.org/Graphics/SVG/1.1/DTD/svg11.dtd">
<svg xmlns="http://www.w3.org/2000/svg" xmlns:xlink="http://www.w3.org/1999/xlink" version="1.1" width="1080" height="1080" viewBox="0 0 1080 1080" xml:space="preserve">
<desc>Created with Fabric.js 5.2.4</desc>
<defs>
</defs>
<g transform="matrix(1 0 0 1 540 540)" id="358fd7b1-6f0e-4960-b94a-1cf52a2be474"  >
<rect style="stroke: none; stroke-width: 1; stroke-dasharray: none; stroke-linecap: butt; stroke-dashoffset: 0; stroke-linejoin: miter; stroke-miterlimit: 4; fill: rgb(255,255,255); fill-rule: nonzero; opacity: 1; visibility: hidden;" vector-effect="non-scaling-stroke"  x="-540" y="-540" rx="0" ry="0" width="1080" height="1080" />
</g>
<g transform="matrix(1 0 0 1 540 540)" id="f7b0dec7-4b9d-42e0-8bbb-427cf076396a"  >
</g>
<g transform="matrix(0.72 -0.13 0.22 1.19 140.3 637.88)" id="canvas"  >
<path style="stroke: rgb(0,0,0); stroke-width: 1; stroke-dasharray: none; stroke-linecap: butt; stroke-dashoffset: 0; stroke-linejoin: miter; stroke-miterlimit: 4; fill: rgb(255,255,255); fill-rule: nonzero; opacity: 1;" vector-effect="non-scaling-stroke"  transform=" translate(-444.67, -423.4)" d="M 332.88 371.93 C 332.16 372.92 331.94 373.95 331.28 377.09 C 330.62 380.23 330.6 382.46 329.57 387.63 C 328.55 392.8 327.97 396.06 326.16 402.94 C 324.34 409.81 323.1 413.98 320.5 422.01 C 317.91 430.05 316.24 434.64 313.17 443.12 C 310.11 451.59 308.26 456.15 305.17 464.4 C 302.09 472.66 300.41 477.07 297.74 484.4 C 295.08 491.72 293.93 495.39 291.84 501.04 C 289.74 506.68 288.48 509.19 287.29 512.62 C 286.09 516.06 285.93 517.31 285.85 518.22 C 285.78 519.13 286.72 519.06 286.89 517.19 C 287.06 515.33 286.79 513.51 286.69 508.89 C 286.6 504.26 286.42 500.85 286.41 494.07 C 286.39 487.3 286.29 483.08 286.63 475.02 C 286.96 466.95 287.18 462.37 288.09 453.75 C 288.99 445.13 289.65 440.56 291.13 431.91 C 292.62 423.27 293.36 418.87 295.49 410.53 C 297.63 402.18 298.87 397.93 301.81 390.18 C 304.75 382.42 306.49 378.62 310.19 371.76 C 313.9 364.9 316 361.53 320.35 355.87 C 324.71 350.2 327.13 347.61 331.98 343.44 C 336.82 339.28 339.52 337.6 344.6 335.04 C 349.67 332.48 352.41 331.54 357.36 330.64 C 362.31 329.74 364.79 329.78 369.34 330.54 C 373.9 331.29 376.28 332.25 380.13 334.42 C 383.99 336.59 385.97 338.15 388.61 341.4 C 391.26 344.66 392.3 346.68 393.36 350.69 C 394.43 354.69 394.61 356.93 393.95 361.42 C 393.29 365.9 392.59 368.49 390.05 373.12 C 387.51 377.74 385.64 380.07 381.25 384.55 C 376.85 389.04 373.98 391.32 368.07 395.54 C 362.16 399.76 358.53 401.9 351.69 405.65 C 344.86 409.41 340.84 411.17 333.89 414.31 C 326.95 417.44 322.97 418.78 316.95 421.32 C 310.93 423.86 308.06 424.78 303.78 427.02 C 299.49 429.25 297.65 430.07 295.53 432.51 C 293.41 434.96 292.91 436.43 293.18 439.24 C 293.46 442.06 294.46 443.52 296.89 446.59 C 299.33 449.65 301.47 451.08 305.36 454.57 C 309.25 458.07 311.68 460.08 316.33 464.06 C 320.99 468.04 323.72 470.33 328.65 474.5 C 333.57 478.66 336.23 480.87 340.95 484.9 C 345.67 488.94 347.96 491.07 352.26 494.69 C 356.56 498.3 358.54 499.97 362.44 502.99 C 366.35 506.01 368.22 507.46 371.78 509.78 C 375.33 512.11 376.98 513.18 380.21 514.61 C 383.44 516.03 384.84 516.5 387.93 516.91 C 391.03 517.32 392.65 517.35 395.67 516.65 C 398.69 515.95 400.13 515.24 403.04 513.4 C 405.94 511.57 407.18 510.27 410.19 507.46 C 413.2 504.66 414.74 502.97 418.1 499.38 C 421.45 495.8 423.25 493.63 426.96 489.54 C 430.67 485.44 432.83 483.02 436.64 478.92 C 440.44 474.82 442.43 472.63 446.01 469.04 C 449.59 465.45 451.45 463.65 454.53 460.96 C 457.62 458.27 459.26 457.31 461.44 455.59 C 463.62 453.87 464.34 453.19 465.43 452.36 C 466.52 451.53 466.71 451.3 466.88 451.44 C 467.05 451.58 466.64 451.85 466.26 453.06 C 465.88 454.27 465.44 455.25 465 457.5 C 464.56 459.76 464.46 461.29 464.07 464.32 C 463.68 467.35 463.48 469.17 463.05 472.65 C 462.63 476.14 462.33 478.15 461.95 481.74 C 461.56 485.32 461.11 487.19 461.13 490.56 C 461.15 493.93 461.17 495.75 462.04 498.58 C 462.91 501.41 463.64 502.83 465.47 504.72 C 467.3 506.6 468.52 507.42 471.18 508.02 C 473.84 508.62 475.71 508.66 478.77 507.72 C 481.82 506.78 483.35 505.66 486.45 503.32 C 489.56 500.98 491.24 499.33 494.31 496.02 C 497.38 492.72 499.2 490.71 501.8 486.8 C 504.41 482.88 505.66 480.77 507.33 476.46 C 509 472.14 509.71 469.6 510.16 465.23 C 510.6 460.85 510.54 458.49 509.55 454.59 C 508.56 450.68 507.7 448.69 505.19 445.7 C 502.69 442.7 500.76 441.29 497.02 439.6 C 493.29 437.91 490.75 437.54 486.52 437.26 C 482.28 436.97 479.99 437.32 475.83 438.17 C 471.67 439.02 469.35 439.78 465.71 441.5 C 462.08 443.22 460.1 444.38 457.67 446.77 C 455.24 449.16 454.24 450.82 453.58 453.47 C 452.92 456.12 453.09 457.71 454.37 460 C 455.66 462.29 456.96 463.75 460.01 464.93 C 463.05 466.11 465.21 466.04 469.6 465.92 C 473.98 465.8 476.46 465.37 481.94 464.33 C 487.43 463.28 490.81 462.6 497.01 460.71 C 503.22 458.81 506.49 457.54 512.97 454.86 C 519.45 452.18 522.93 450.63 529.39 447.29 C 535.86 443.96 539.13 442.16 545.27 438.18 C 551.42 434.19 554.44 431.94 560.11 427.36 C 565.79 422.78 568.65 420.34 573.66 415.3 C 578.68 410.25 580.95 407.52 585.18 402.15 C 589.42 396.78 591.49 393.8 594.84 388.45 C 598.19 383.09 599.7 380.17 601.94 375.38 C 604.18 370.58 605.36 368 606.05 364.47 C 606.74 360.94 606.5 359.15 605.39 357.74 C 604.29 356.34 602.69 355.96 600.52 357.45 C 598.34 358.94 597.28 360.85 594.52 365.19 C 591.76 369.52 590.15 372.68 586.72 379.13 C 583.29 385.59 581.33 389.6 577.36 397.45 C 573.4 405.3 571.06 409.87 566.9 418.38 C 562.74 426.89 560.37 431.72 556.57 440 C 552.78 448.28 550.89 452.66 547.92 459.79 C 544.94 466.93 543.57 470.37 541.7 475.68 C 539.83 481 538.64 483.22 538.57 486.36 C 538.5 489.51 539.41 490.67 541.33 491.41 C 543.25 492.15 545.03 491.78 548.17 490.07 C 551.31 488.37 553.03 486.17 557.02 482.88 C 561.02 479.59 563.56 477.29 568.13 473.64 C 572.71 469.99 575.43 467.75 579.92 464.63 C 584.4 461.52 587.03 459.87 590.55 458.06 C 594.06 456.24 595.69 455.81 597.51 455.55 C 599.33 455.29 599.37 455.5 599.64 456.74 C 599.92 457.98 599.3 459.07 598.89 461.72 C 598.48 464.38 598.11 466.53 597.59 470.01 C 597.08 473.49 596.38 475.63 596.3 479.12 C 596.23 482.61 596.07 484.82 597.21 487.45 C 598.36 490.09 600.72 491.58 602.04 492.3 C 603.36 493.01 603.91 492.26 603.81 491.01 C 603.71 489.76 602 488.36 601.52 486.04 C 601.05 483.72 601.14 482.44 601.42 479.4 C 601.7 476.36 602.38 474.31 602.93 470.83 C 603.48 467.35 604.3 465.1 604.19 462 C 604.08 458.9 603.74 457.29 602.38 455.33 C 601.02 453.38 600.05 452.29 597.37 452.22 C 594.68 452.14 592.79 452.98 588.95 454.96 C 585.1 456.93 582.7 458.88 578.14 462.11 C 573.59 465.34 570.85 467.54 566.16 471.11 C 561.47 474.68 558.73 476.85 554.69 479.95 C 550.66 483.05 548.56 484.72 545.99 486.63 C 543.42 488.54 542.69 489.49 541.84 489.5 C 540.99 489.5 541.31 489.25 541.75 486.64 C 542.19 484.03 542.43 481.67 544.02 476.45 C 545.62 471.23 546.9 467.67 549.73 460.53 C 552.57 453.39 554.44 449.01 558.2 440.74 C 561.95 432.47 564.32 427.65 568.51 419.18 C 572.71 410.71 575.07 406.14 579.17 398.39 C 583.28 390.64 585.37 386.67 589.02 380.41 C 592.67 374.16 594.64 371.17 597.42 367.1 C 600.2 363.02 601.64 361.73 602.91 360.02 C 604.18 358.3 603.86 357.8 603.77 358.52 C 603.68 359.24 603.36 360.48 602.47 363.62 C 601.58 366.76 601.25 369.51 599.31 374.22 C 597.37 378.93 595.94 381.87 592.76 387.18 C 589.59 392.49 587.55 395.45 583.42 400.77 C 579.3 406.09 577.07 408.8 572.14 413.79 C 567.21 418.78 564.39 421.19 558.79 425.72 C 553.18 430.24 550.2 432.47 544.12 436.39 C 538.04 440.32 534.8 442.09 528.4 445.34 C 521.99 448.6 518.51 450.12 512.08 452.68 C 505.66 455.24 502.4 456.45 496.27 458.15 C 490.13 459.84 486.75 460.41 481.42 461.17 C 476.09 461.92 473.57 462.08 469.62 461.91 C 465.67 461.74 464.07 461.12 461.67 460.33 C 459.27 459.54 458.47 459.11 457.63 457.98 C 456.79 456.85 456.81 456.25 457.46 454.67 C 458.11 453.1 458.87 451.99 460.88 450.1 C 462.9 448.2 464.38 446.81 467.53 445.19 C 470.68 443.57 472.89 442.79 476.63 441.98 C 480.38 441.17 482.5 440.9 486.26 441.14 C 490.02 441.37 492.24 441.75 495.44 443.16 C 498.64 444.56 500.16 445.69 502.26 448.16 C 504.36 450.63 505.07 452.17 505.94 455.51 C 506.8 458.86 506.97 460.94 506.6 464.88 C 506.23 468.81 505.63 471.21 504.07 475.19 C 502.52 479.16 501.34 481.14 498.81 484.76 C 496.29 488.37 494.45 490.29 491.45 493.26 C 488.45 496.23 486.67 497.71 483.81 499.6 C 480.96 501.49 479.53 501.9 477.17 502.69 C 474.8 503.48 473.68 503.72 471.98 503.55 C 470.27 503.38 469.68 503.08 468.64 501.83 C 467.61 500.57 467.35 499.52 466.81 497.26 C 466.27 495 465.99 493.52 465.95 490.52 C 465.91 487.52 466.2 485.68 466.61 482.26 C 467.01 478.85 467.32 476.82 467.98 473.43 C 468.64 470.04 469.23 468.36 469.89 465.33 C 470.55 462.3 471.13 460.82 471.28 458.28 C 471.43 455.74 471.31 454.43 470.66 452.65 C 470 450.87 469.34 450.08 468 449.4 C 466.67 448.71 465.83 448.67 463.97 449.21 C 462.11 449.75 461.06 450.25 458.7 452.09 C 456.34 453.93 455.13 455.45 452.15 458.41 C 449.17 461.37 447.35 463.21 443.82 466.91 C 440.28 470.6 438.3 472.8 434.47 476.9 C 430.65 481.01 428.45 483.42 424.68 487.44 C 420.91 491.46 419.05 493.57 415.62 496.98 C 412.19 500.39 410.53 501.97 407.54 504.48 C 404.55 506.99 403.27 508.02 400.68 509.53 C 398.08 511.04 397.03 511.45 394.58 512.04 C 392.13 512.63 391 512.69 388.42 512.48 C 385.84 512.27 384.67 512.08 381.7 510.97 C 378.73 509.86 377.06 508.98 373.56 506.92 C 370.06 504.86 368.12 503.5 364.2 500.65 C 360.28 497.8 358.27 496.19 353.95 492.65 C 349.63 489.11 347.32 487 342.6 482.97 C 337.88 478.95 335.21 476.74 330.34 472.52 C 325.47 468.3 322.78 465.98 318.25 461.88 C 313.73 457.79 311.38 455.61 307.71 452.05 C 304.05 448.49 302.19 446.75 299.94 444.09 C 297.69 441.44 296.85 440.65 296.48 438.79 C 296.12 436.94 296.38 436.68 298.11 434.81 C 299.84 432.95 301.17 431.75 305.12 429.48 C 309.08 427.21 311.95 426.11 317.88 423.46 C 323.81 420.81 327.81 419.43 334.77 416.24 C 341.74 413.05 345.79 411.28 352.71 407.51 C 359.63 403.73 363.31 401.62 369.37 397.38 C 375.43 393.14 378.39 390.9 383.02 386.32 C 387.65 381.74 389.71 379.38 392.5 374.49 C 395.3 369.6 396.19 366.81 396.98 361.89 C 397.78 356.96 397.65 354.37 396.48 349.87 C 395.3 345.36 394.09 342.99 391.12 339.36 C 388.16 335.72 385.91 334.04 381.64 331.7 C 377.37 329.37 374.75 328.41 369.79 327.67 C 364.84 326.93 362.12 326.97 356.86 328.01 C 351.6 329.05 348.75 330.13 343.49 332.88 C 338.22 335.63 335.48 337.42 330.53 341.78 C 325.58 346.13 323.14 348.82 318.74 354.64 C 314.34 360.45 312.25 363.88 308.52 370.86 C 304.8 377.84 303.06 381.69 300.12 389.54 C 297.17 397.38 295.93 401.67 293.78 410.09 C 291.63 418.5 290.89 422.92 289.37 431.61 C 287.85 440.3 287.18 444.88 286.19 453.54 C 285.2 462.2 284.96 466.8 284.42 474.9 C 283.89 482.99 283.82 487.2 283.52 494.01 C 283.21 500.82 282.85 504.21 282.92 508.95 C 282.98 513.69 283.01 515.66 283.84 517.71 C 284.68 519.77 285.81 520.01 287.1 519.22 C 288.39 518.43 288.9 517.23 290.29 513.75 C 291.68 510.27 292.21 507.55 294.07 501.81 C 295.93 496.08 297.03 492.41 299.59 485.06 C 302.16 477.7 303.82 473.3 306.88 465.04 C 309.95 456.78 311.8 452.23 314.92 443.75 C 318.04 435.28 319.73 430.69 322.47 422.67 C 325.21 414.64 326.55 410.49 328.62 403.63 C 330.68 396.77 331.47 393.54 332.8 388.37 C 334.13 383.19 334.86 381.01 335.28 377.77 C 335.71 374.52 335.39 373.33 334.91 372.16 C 334.43 370.99 333.61 370.95 332.88 371.93" stroke-linecap="round" />
</g>
<g transform="matrix(0.72 -0.13 0.22 1.19 359.88 645.43)" id="canvas"  >
<path style="stroke: rgb(0,0,0); stroke-width: 1; stroke-dasharray: none; stroke-linecap: butt; stroke-dashoffset: 0; stroke-linejoin: miter; stroke-miterlimit: 4; fill: rgb(255,255,255); fill-rule: nonzero; opacity: 1;" vector-effect="non-scaling-stroke"  transform=" translate(-716.95, -477.08)" d="M 684.61 451.83 C 684.5 450.8 684.05 449.59 682.52 448.35 C 680.99 447.1 679.82 446.11 676.97 445.6 C 674.12 445.1 672 444.82 668.28 445.82 C 664.55 446.82 662.59 448.03 658.33 450.6 C 654.08 453.16 651.52 454.98 646.99 458.64 C 642.46 462.3 639.86 464.76 635.69 468.9 C 631.51 473.05 629.14 475.45 626.12 479.37 C 623.1 483.28 621.51 485.29 620.58 488.47 C 619.64 491.65 619.98 493.4 621.46 495.26 C 622.94 497.13 624.64 497.96 627.98 497.8 C 631.32 497.65 633.58 496.57 638.17 494.47 C 642.76 492.37 645.59 490.7 650.93 487.31 C 656.27 483.92 659.49 481.58 664.86 477.53 C 670.23 473.47 673.21 470.92 677.79 467.04 C 682.37 463.15 685.06 460.9 687.75 458.1 C 690.45 455.3 691.17 453.94 691.27 453.04 C 691.38 452.14 690.02 452.17 688.28 453.6 C 686.54 455.03 685.05 456.83 682.59 460.19 C 680.14 463.55 678.23 466.3 676 470.4 C 673.77 474.5 672.42 477.03 671.45 480.69 C 670.49 484.34 670.25 486.08 671.19 488.66 C 672.14 491.24 673.36 492.63 676.17 493.58 C 678.98 494.53 681.11 494.34 685.23 493.43 C 689.34 492.52 691.71 491.32 696.76 489.04 C 701.81 486.76 704.8 485.2 710.48 482.04 C 716.16 478.88 719.52 476.67 725.15 473.24 C 730.78 469.81 733.85 467.67 738.62 464.9 C 743.39 462.12 746.06 460.92 749 459.36 C 751.95 457.81 752.96 457.11 753.36 457.12 C 753.75 457.14 752.5 457.38 750.97 459.45 C 749.44 461.52 748.25 463.92 745.71 467.47 C 743.18 471.03 740.99 473.55 738.3 477.22 C 735.6 480.89 733.5 482.89 732.24 485.82 C 730.98 488.75 730.93 490.38 731.99 491.88 C 733.06 493.38 734.43 494.03 737.58 493.3 C 740.72 492.57 742.88 490.8 747.71 488.23 C 752.55 485.66 755.85 483.58 761.73 480.47 C 767.61 477.35 771.1 475.34 777.11 472.67 C 783.13 470 786.62 468.49 791.8 467.11 C 796.98 465.74 799.71 465.68 803.01 465.81 C 806.31 465.94 807.07 466.39 808.32 467.76 C 809.57 469.14 809.31 470.14 809.27 472.69 C 809.23 475.25 808.68 477.11 808.1 480.54 C 807.52 483.97 806.7 486.2 806.36 489.84 C 806.03 493.48 806.04 495.6 806.44 498.73 C 806.84 501.86 807.4 503.48 808.38 505.5 C 809.36 507.51 810.45 508.29 811.35 508.79 C 812.24 509.29 812.68 508.91 812.85 508.01 C 813.02 507.12 812.45 506.27 812.19 504.31 C 811.94 502.35 811.79 501.02 811.59 498.21 C 811.39 495.4 810.96 493.64 811.21 490.25 C 811.47 486.86 812.38 484.85 812.88 481.27 C 813.38 477.7 814.16 475.54 813.71 472.38 C 813.26 469.21 812.73 467.41 810.62 465.45 C 808.51 463.48 807.07 462.76 803.16 462.55 C 799.25 462.35 796.48 462.88 791.06 464.42 C 785.64 465.96 782.19 467.57 776.05 470.26 C 769.92 472.94 766.38 474.89 760.39 477.85 C 754.4 480.81 750.94 482.74 746.11 485.06 C 741.29 487.37 738.81 488.22 736.26 489.41 C 733.72 490.61 733.4 491.28 733.39 491.02 C 733.38 490.76 734.48 490.33 736.2 488.11 C 737.92 485.9 739.36 483.55 742 479.94 C 744.65 476.33 746.85 473.77 749.4 470.06 C 751.96 466.34 753.83 464.21 754.77 461.36 C 755.71 458.51 755.55 456.85 754.11 455.81 C 752.67 454.78 750.96 454.87 747.56 456.19 C 744.17 457.51 741.89 459.46 737.13 462.42 C 732.37 465.38 729.37 467.56 723.78 471 C 718.18 474.43 714.81 476.6 709.15 479.6 C 703.49 482.6 700.42 484.03 695.47 486.01 C 690.52 488 688.04 488.76 684.39 489.52 C 680.74 490.28 679.2 490.18 677.21 489.8 C 675.23 489.43 674.78 489.23 674.46 487.67 C 674.14 486.1 674.5 484.99 675.62 481.99 C 676.75 478.99 677.91 476.49 680.09 472.67 C 682.26 468.85 684.3 466.29 686.51 462.89 C 688.72 459.49 690.32 457.8 691.14 455.65 C 691.97 453.5 691.78 452.14 690.63 452.13 C 689.48 452.13 688.33 453.06 685.39 455.61 C 682.45 458.17 680.37 460.95 675.94 464.91 C 671.52 468.87 668.58 471.43 663.26 475.4 C 657.94 479.37 654.67 481.61 649.36 484.76 C 644.06 487.91 641.1 489.36 636.73 491.14 C 632.36 492.91 630.18 493.15 627.53 493.65 C 624.87 494.16 624.13 494.43 623.46 493.64 C 622.78 492.86 623.1 492.2 624.16 489.73 C 625.21 487.27 626 485.07 628.73 481.33 C 631.46 477.59 633.77 475.08 637.81 471.03 C 641.85 466.98 644.47 464.54 648.93 461.09 C 653.39 457.63 656.05 455.9 660.12 453.77 C 664.19 451.63 666.11 450.91 669.28 450.41 C 672.44 449.91 673.77 450.87 675.95 451.26 C 678.13 451.66 678.77 451.95 680.19 452.4 C 681.61 452.85 682.18 453.62 683.06 453.51 C 683.94 453.39 684.72 452.86 684.61 451.83" stroke-linecap="round" />
</g>
<g transform="matrix(0.72 -0.13 0.22 1.19 499.13 583.46)" id="canvas"  >
<path style="stroke: rgb(0,0,0); stroke-width: 1; stroke-dasharray: none; stroke-linecap: butt; stroke-dashoffset: 0; stroke-linejoin: miter; stroke-miterlimit: 4; fill: rgb(255,255,255); fill-rule: nonzero; opacity: 1;" vector-effect="non-scaling-stroke"  transform=" translate(-979.26, -456.61)" d="M 1013.76 385.6 C 1012.94 386.16 1012.43 386.56 1011.49 388.96 C 1010.55 391.36 1010.56 393.03 1009.07 397.58 C 1007.57 402.13 1006.56 405.2 1004.03 411.7 C 1001.51 418.2 999.92 422.29 996.44 430.08 C 992.96 437.87 990.79 442.24 986.64 450.63 C 982.48 459.03 980.08 463.78 975.68 472.05 C 971.28 480.32 968.74 484.78 964.64 491.98 C 960.53 499.18 958.48 502.65 955.15 508.04 C 951.82 513.44 950.18 515.63 947.96 518.94 C 945.75 522.26 945.16 522.98 944.08 524.62 C 943 526.25 942.71 526.48 942.55 527.13 C 942.39 527.79 942.58 528.08 943.29 527.9 C 944 527.72 944.67 527.71 946.1 526.24 C 947.52 524.77 948.23 523.96 950.42 520.55 C 952.61 517.14 953.88 514.71 957.05 509.18 C 960.22 503.65 962.23 500.16 966.27 492.9 C 970.3 485.64 972.83 481.16 977.22 472.87 C 981.62 464.58 984.03 459.83 988.26 451.44 C 992.48 443.06 994.69 438.69 998.34 430.95 C 1001.99 423.21 1003.68 419.15 1006.51 412.72 C 1009.34 406.3 1010.66 403.34 1012.5 398.85 C 1014.33 394.36 1015.07 392.83 1015.69 390.28 C 1016.3 387.73 1015.96 387.05 1015.58 386.12 C 1015.19 385.18 1014.58 385.03 1013.76 385.6" stroke-linecap="round" />
</g>
<g transform="matrix(0.72 -0.13 0.22 1.19 687.78 519.56)" id="canvas"  >
<path style="stroke: rgb(0,0,0); stroke-width: 1; stroke-dasharray: none; stroke-linecap: butt; stroke-dashoffset: 0; stroke-linejoin: miter; stroke-miterlimit: 4; fill: rgb(255,255,255); fill-rule: nonzero; opacity: 1;" vector-effect="non-scaling-stroke"  transform=" translate(-1238.01, -433.3)" d="M 929.18 395.41 C 930.01 395.76 930.27 395.93 932.72 395.5 C 935.16 395.06 936.58 394.35 941.41 393.23 C 946.24 392.11 949.61 391.22 956.89 389.89 C 964.17 388.56 968.86 388.1 977.8 386.6 C 986.73 385.09 991.92 384.07 1001.56 382.36 C 1011.2 380.66 1016.47 379.8 1026 378.06 C 1035.54 376.32 1040.31 375.36 1049.23 373.66 C 1058.15 371.97 1062.84 371.17 1070.59 369.59 C 1078.35 368.01 1082.02 367.07 1088 365.76 C 1093.98 364.44 1096.93 363.7 1100.48 363.02 C 1104.04 362.34 1105.2 361.7 1105.79 362.34 C 1106.38 362.97 1105.57 363.2 1103.45 366.19 C 1101.33 369.19 1099.6 371.74 1095.19 377.32 C 1090.79 382.89 1087.58 386.71 1081.42 394.08 C 1075.26 401.45 1071.21 405.99 1064.41 414.18 C 1057.61 422.37 1053.73 426.97 1047.41 435.02 C 1041.09 443.07 1037.76 447.37 1032.81 454.43 C 1027.85 461.48 1025.54 464.97 1022.63 470.3 C 1019.71 475.62 1018.51 477.77 1018.24 481.06 C 1017.97 484.35 1018.92 485.77 1021.28 486.76 C 1023.64 487.75 1025.78 487.33 1030.07 486 C 1034.36 484.66 1037.21 482.96 1042.74 480.09 C 1048.27 477.22 1051.59 474.99 1057.7 471.65 C 1063.82 468.31 1067.42 466.22 1073.31 463.38 C 1079.19 460.55 1082.47 459.05 1087.12 457.48 C 1091.76 455.92 1094.08 455.73 1096.52 455.56 C 1098.96 455.39 1099.11 455.34 1099.3 456.64 C 1099.49 457.94 1098.65 459.2 1097.46 462.04 C 1096.26 464.89 1095.18 467.04 1093.33 470.84 C 1091.48 474.64 1089.91 477.12 1088.19 481.04 C 1086.47 484.97 1085.15 487 1084.73 490.45 C 1084.31 493.9 1084.55 495.88 1086.07 498.31 C 1087.59 500.73 1089.04 501.91 1092.32 502.58 C 1095.59 503.25 1097.67 502.73 1102.43 501.64 C 1107.18 500.55 1110.03 499.56 1116.09 497.13 C 1122.16 494.71 1125.89 492.93 1132.77 489.53 C 1139.65 486.13 1143.61 483.88 1150.51 480.12 C 1157.41 476.36 1161.15 474.16 1167.28 470.72 C 1173.4 467.28 1177.11 465.51 1181.13 462.93 C 1185.16 460.35 1186.82 459.08 1187.41 457.82 C 1187.99 456.55 1186.44 455.7 1184.06 456.61 C 1181.67 457.52 1179.44 459.21 1175.46 462.36 C 1171.48 465.5 1168.44 468.05 1164.15 472.33 C 1159.86 476.62 1157.25 479.44 1154.02 483.78 C 1150.79 488.13 1149.26 490.39 1148.02 494.05 C 1146.78 497.72 1146.69 499.62 1147.83 502.11 C 1148.97 504.6 1150.63 505.85 1153.72 506.49 C 1156.81 507.14 1159.08 506.54 1163.27 505.35 C 1167.45 504.16 1170.02 503 1174.66 500.54 C 1179.3 498.07 1181.99 496.37 1186.47 493.02 C 1190.95 489.68 1193.41 487.63 1197.05 483.8 C 1200.69 479.97 1202.49 477.73 1204.68 473.86 C 1206.88 469.98 1207.75 467.89 1208.03 464.42 C 1208.31 460.95 1207.62 459.02 1206.08 456.51 C 1204.53 454 1202.74 452.9 1200.32 451.87 C 1197.9 450.83 1195.95 450.79 1193.96 451.32 C 1191.97 451.85 1190.79 453.07 1190.39 454.52 C 1189.99 455.96 1190.2 457.41 1191.98 458.56 C 1193.76 459.71 1195.44 460.19 1199.28 460.27 C 1203.12 460.36 1205.79 459.82 1211.18 458.99 C 1216.58 458.15 1220.07 457.29 1226.25 456.1 C 1232.43 454.91 1236.12 453.95 1242.08 453.02 C 1248.04 452.1 1251.3 451.59 1256.04 451.48 C 1260.78 451.38 1263.11 451.6 1265.76 452.51 C 1268.42 453.41 1268.84 453.94 1269.32 456.01 C 1269.81 458.08 1269.49 459.48 1268.18 462.85 C 1266.87 466.22 1265.37 468.67 1262.79 472.86 C 1260.21 477.05 1258.26 479.67 1255.27 483.79 C 1252.28 487.92 1250.1 490.24 1247.84 493.5 C 1245.58 496.77 1244.34 498.34 1243.97 500.13 C 1243.59 501.92 1244.39 502.87 1245.97 502.46 C 1247.54 502.05 1248.89 500.87 1251.83 498.08 C 1254.78 495.3 1256.61 492.7 1260.68 488.52 C 1264.75 484.33 1267.42 481.49 1272.18 477.16 C 1276.93 472.82 1279.92 470.32 1284.46 466.85 C 1289 463.38 1291.21 461.82 1294.86 459.81 C 1298.51 457.8 1300.08 457.42 1302.69 456.78 C 1305.31 456.14 1305.88 456.24 1307.94 456.63 C 1310 457.01 1310.54 457.86 1313 458.72 C 1315.46 459.57 1316.86 460.28 1320.23 460.91 C 1323.6 461.53 1325.54 461.81 1329.86 461.83 C 1334.18 461.85 1336.61 461.71 1341.83 461.01 C 1347.05 460.32 1350.17 459.62 1355.96 458.35 C 1361.75 457.07 1365.15 456.09 1370.8 454.65 C 1376.44 453.21 1379.44 452.35 1384.18 451.15 C 1388.92 449.96 1391.46 449.64 1394.5 448.68 C 1397.54 447.72 1398.7 447.16 1399.39 446.34 C 1400.08 445.53 1399.58 444.57 1397.95 444.59 C 1396.31 444.6 1394.66 444.85 1391.23 446.43 C 1387.79 448 1385.4 449.56 1380.76 452.46 C 1376.12 455.37 1373.19 457.29 1368.02 460.94 C 1362.85 464.59 1359.73 466.81 1354.92 470.7 C 1350.11 474.58 1347.57 476.81 1343.95 480.36 C 1340.34 483.91 1338.62 485.57 1336.85 488.44 C 1335.07 491.31 1334.68 492.72 1335.07 494.71 C 1335.45 496.7 1336.41 497.82 1338.76 498.39 C 1341.11 498.97 1343.03 498.85 1346.81 497.58 C 1350.6 496.31 1352.95 494.74 1357.69 492.04 C 1362.42 489.34 1365.28 487.55 1370.48 484.1 C 1375.68 480.65 1379.01 478.2 1383.69 474.8 C 1388.36 471.39 1391.12 469.39 1393.88 467.08 C 1396.63 464.77 1397.23 463.66 1397.45 463.25 C 1397.68 462.84 1396.42 463.14 1394.99 465.02 C 1393.57 466.91 1392.12 469.04 1390.32 472.67 C 1388.52 476.29 1387.06 479.08 1385.99 483.14 C 1384.92 487.2 1384.25 489.68 1384.98 492.98 C 1385.71 496.27 1386.74 498.17 1389.65 499.63 C 1392.56 501.1 1394.8 501.16 1399.53 500.3 C 1404.26 499.45 1407.05 498.35 1413.3 495.36 C 1419.56 492.37 1423.21 490.28 1430.81 485.35 C 1438.41 480.42 1442.83 477.21 1451.3 470.71 C 1459.78 464.21 1464.38 460.27 1473.16 452.84 C 1481.94 445.41 1486.72 441.08 1495.19 433.55 C 1503.66 426.02 1508.09 421.98 1515.52 415.18 C 1522.94 408.38 1526.67 404.87 1532.31 399.53 C 1537.94 394.2 1540.62 391.87 1543.69 388.51 C 1546.76 385.15 1547.62 383.87 1547.67 382.72 C 1547.72 381.57 1546.32 381.07 1543.94 382.75 C 1541.57 384.44 1539.91 386.6 1535.78 391.14 C 1531.65 395.69 1528.7 399 1523.3 405.48 C 1517.9 411.96 1514.49 416.11 1508.8 423.54 C 1503.1 430.97 1499.91 435.19 1494.82 442.63 C 1489.73 450.08 1487.22 454.12 1483.35 460.77 C 1479.48 467.42 1477.88 470.64 1475.47 475.9 C 1473.06 481.17 1472.05 483.41 1471.31 487.09 C 1470.57 490.78 1470.68 492.26 1471.76 494.33 C 1472.84 496.39 1474.23 497.01 1476.72 497.42 C 1479.21 497.83 1481.07 497.44 1484.21 496.38 C 1487.35 495.32 1489.2 494.12 1492.42 492.13 C 1495.65 490.13 1497.84 488.77 1500.34 486.4 C 1502.85 484.03 1504.35 481.83 1504.94 480.27 C 1505.53 478.72 1504.82 478.11 1503.31 478.61 C 1501.81 479.1 1500.11 480.92 1497.4 482.74 C 1494.69 484.55 1492.8 485.93 1489.76 487.66 C 1486.73 489.4 1484.84 490.2 1482.24 491.41 C 1479.64 492.63 1478.38 493.38 1476.77 493.73 C 1475.16 494.09 1474.65 494.38 1474.18 493.18 C 1473.7 491.97 1473.69 490.99 1474.38 487.72 C 1475.07 484.46 1475.51 482.04 1477.65 476.85 C 1479.78 471.65 1481.31 468.38 1485.05 461.75 C 1488.79 455.11 1491.28 451.07 1496.33 443.66 C 1501.38 436.26 1504.56 432.05 1510.32 424.72 C 1516.07 417.39 1519.57 413.32 1525.1 407.02 C 1530.63 400.72 1533.74 397.55 1537.97 393.2 C 1542.2 388.84 1544.49 387.44 1546.27 385.23 C 1548.04 383.03 1547.72 381.89 1546.84 382.2 C 1545.96 382.5 1545.04 383.58 1541.87 386.78 C 1538.71 389.98 1536.49 392.75 1531.01 398.2 C 1525.53 403.65 1521.83 407.19 1514.47 414.05 C 1507.12 420.91 1502.69 424.95 1494.24 432.48 C 1485.79 440.02 1481 444.34 1472.22 451.72 C 1463.44 459.11 1458.82 463.03 1450.32 469.42 C 1441.83 475.81 1437.37 478.96 1429.75 483.69 C 1422.14 488.41 1418.4 490.36 1412.24 493.05 C 1406.09 495.73 1403.17 496.44 1398.99 497.09 C 1394.8 497.74 1393.26 497.24 1391.31 496.29 C 1389.37 495.34 1389.36 494.69 1389.25 492.34 C 1389.14 489.98 1389.62 488.02 1390.75 484.52 C 1391.87 481.01 1393.32 478.39 1394.89 474.81 C 1396.46 471.23 1398.09 469.16 1398.61 466.62 C 1399.14 464.07 1398.89 462.58 1397.51 462.09 C 1396.13 461.6 1394.86 462.13 1391.73 464.18 C 1388.59 466.22 1386.41 468.83 1381.84 472.31 C 1377.26 475.79 1374 478.25 1368.83 481.57 C 1363.67 484.89 1360.7 486.55 1356.01 488.91 C 1351.32 491.28 1348.76 492.2 1345.37 493.41 C 1341.98 494.61 1340.65 494.7 1339.07 494.93 C 1337.48 495.15 1337.24 495.42 1337.43 494.54 C 1337.62 493.67 1338.26 492.95 1340 490.54 C 1341.74 488.14 1342.81 486.05 1346.14 482.51 C 1349.48 478.97 1351.97 476.69 1356.67 472.86 C 1361.38 469.03 1364.48 466.8 1369.68 463.36 C 1374.87 459.93 1377.91 458.22 1382.63 455.68 C 1387.35 453.15 1389.99 452.37 1393.29 450.68 C 1396.58 448.99 1397.93 448.45 1399.1 447.25 C 1400.27 446.06 1400.25 445.21 1399.12 444.7 C 1397.99 444.19 1396.61 444.01 1393.45 444.69 C 1390.29 445.36 1387.99 446.64 1383.32 448.07 C 1378.64 449.5 1375.67 450.38 1370.07 451.86 C 1364.48 453.33 1361.07 454.28 1355.34 455.46 C 1349.62 456.64 1346.52 457.26 1341.45 457.75 C 1336.38 458.24 1334.05 458.21 1330 457.91 C 1325.95 457.62 1324.33 457.03 1321.21 456.28 C 1318.09 455.53 1316.96 454.86 1314.41 454.16 C 1311.86 453.47 1310.98 453.02 1308.44 452.8 C 1305.9 452.58 1304.75 452.22 1301.71 453.08 C 1298.68 453.93 1297.07 454.77 1293.27 457.08 C 1289.48 459.38 1287.34 461.03 1282.73 464.61 C 1278.13 468.19 1275.15 470.71 1270.25 474.99 C 1265.34 479.26 1262.47 481.95 1258.19 485.98 C 1253.9 490 1251.54 492.15 1248.82 495.1 C 1246.09 498.05 1245.07 499.44 1244.56 500.72 C 1244.04 502.01 1244.91 502.49 1246.23 501.53 C 1247.56 500.58 1248.8 499.08 1251.2 495.94 C 1253.59 492.81 1255.26 490.1 1258.19 485.87 C 1261.13 481.63 1263.18 479.13 1265.89 474.78 C 1268.6 470.44 1270.38 468.09 1271.74 464.14 C 1273.09 460.19 1273.63 458.02 1272.67 455.05 C 1271.71 452.08 1270.3 450.61 1266.96 449.29 C 1263.61 447.97 1261.01 448.26 1255.95 448.45 C 1250.88 448.64 1247.69 449.31 1241.65 450.25 C 1235.6 451.2 1231.9 452.16 1225.72 453.18 C 1219.54 454.21 1216.01 454.92 1210.75 455.37 C 1205.49 455.82 1202.9 455.54 1199.41 455.43 C 1195.93 455.31 1194.78 454.79 1193.32 454.79 C 1191.86 454.79 1191.89 455.16 1192.12 455.41 C 1192.34 455.66 1193.16 455.84 1194.45 456.03 C 1195.74 456.22 1196.93 455.81 1198.56 456.36 C 1200.19 456.9 1201.48 457.22 1202.59 458.78 C 1203.69 460.33 1204.26 461.44 1204.09 464.13 C 1203.91 466.81 1203.56 468.71 1201.7 472.22 C 1199.84 475.72 1198.2 478 1194.78 481.66 C 1191.36 485.32 1188.95 487.35 1184.6 490.49 C 1180.26 493.64 1177.54 495.21 1173.06 497.4 C 1168.57 499.59 1165.94 500.46 1162.19 501.46 C 1158.44 502.45 1156.61 502.51 1154.3 502.39 C 1151.98 502.28 1151.2 502.31 1150.61 500.88 C 1150.02 499.46 1150.13 498.29 1151.33 495.26 C 1152.54 492.23 1153.57 489.81 1156.63 485.73 C 1159.69 481.65 1162.39 478.94 1166.63 474.86 C 1170.87 470.77 1173.99 468.41 1177.82 465.31 C 1181.66 462.21 1184.07 461.07 1185.8 459.35 C 1187.54 457.63 1187.74 456.48 1186.5 456.7 C 1185.26 456.92 1183.69 458.05 1179.61 460.45 C 1175.53 462.85 1172.14 465.14 1166.11 468.69 C 1160.09 472.25 1156.35 474.47 1149.47 478.22 C 1142.6 481.96 1138.62 484.16 1131.75 487.42 C 1124.88 490.68 1121.11 492.36 1115.1 494.52 C 1109.1 496.68 1106.14 497.43 1101.72 498.22 C 1097.31 499.02 1095.55 498.83 1093.03 498.48 C 1090.52 498.13 1089.94 497.94 1089.15 496.48 C 1088.35 495.01 1088.45 493.9 1089.04 491.16 C 1089.64 488.42 1090.46 486.47 1092.12 482.8 C 1093.79 479.13 1095.46 476.69 1097.37 472.82 C 1099.28 468.95 1100.75 466.86 1101.65 463.45 C 1102.56 460.04 1102.91 458.04 1101.89 455.76 C 1100.87 453.49 1099.7 452.29 1096.55 452.08 C 1093.4 451.87 1091.01 452.93 1086.14 454.73 C 1081.27 456.53 1078.12 458.16 1072.18 461.08 C 1066.25 463.99 1062.62 466.07 1056.45 469.32 C 1050.29 472.57 1046.85 474.65 1041.35 477.33 C 1035.85 480.01 1032.83 481.3 1028.96 482.71 C 1025.1 484.13 1023.61 484.64 1022.03 484.39 C 1020.45 484.13 1020.54 484.04 1021.06 481.43 C 1021.57 478.82 1021.94 476.53 1024.58 471.33 C 1027.22 466.13 1029.44 462.5 1034.26 455.44 C 1039.08 448.37 1042.39 444.05 1048.68 436.02 C 1054.97 427.98 1058.84 423.38 1065.69 415.25 C 1072.55 407.13 1076.65 402.64 1082.95 395.38 C 1089.25 388.12 1092.55 384.45 1097.19 378.94 C 1101.82 373.44 1104.13 371.4 1106.11 367.87 C 1108.09 364.33 1108.32 362.81 1107.1 361.25 C 1105.89 359.7 1103.97 359.64 1100.04 360.1 C 1096.11 360.55 1093.43 361.98 1087.46 363.51 C 1081.5 365.04 1077.91 366.05 1070.2 367.75 C 1062.49 369.45 1057.81 370.26 1048.91 372 C 1040.01 373.74 1035.24 374.71 1025.71 376.44 C 1016.18 378.17 1010.91 379.02 1001.26 380.66 C 991.62 382.3 986.44 383.29 977.49 384.63 C 968.53 385.96 963.83 386.33 956.48 387.35 C 949.13 388.37 945.68 388.92 940.72 389.72 C 935.76 390.53 934.09 390.56 931.67 391.37 C 929.24 392.17 929.1 392.93 928.6 393.74 C 928.11 394.55 928.36 395.06 929.18 395.41" stroke-linecap="round" />
</g>
<g transform="matrix(0.72 -0.13 0.22 1.19 914.2 528.14)" id="canvas"  >
<path style="stroke: rgb(0,0,0); stroke-width: 1; stroke-dasharray: none; stroke-linecap: butt; stroke-dashoffset: 0; stroke-linejoin: miter; stroke-miterlimit: 4; fill: rgb(255,255,255); fill-rule: nonzero; opacity: 1;" vector-effect="non-scaling-stroke"  transform=" translate(-1506.97, -449.11)" d="M 1463.06 454.25 C 1463.9 454.71 1464.05 455.07 1467.05 454.88 C 1470.06 454.69 1472.23 454.04 1478.09 453.3 C 1483.95 452.55 1488.21 452.06 1496.36 451.15 C 1504.5 450.23 1510.5 449.64 1518.83 448.74 C 1527.15 447.84 1531.75 447.39 1537.97 446.66 C 1544.19 445.93 1547.56 445.77 1549.91 445.09 C 1552.25 444.42 1552.13 443.4 1549.69 443.29 C 1547.26 443.19 1543.96 443.93 1537.74 444.57 C 1531.52 445.21 1526.92 445.66 1518.59 446.48 C 1510.27 447.29 1504.27 447.91 1496.1 448.64 C 1487.94 449.37 1483.67 449.71 1477.77 450.15 C 1471.87 450.59 1469.59 450.36 1466.6 450.85 C 1463.61 451.34 1463.53 451.91 1462.82 452.59 C 1462.11 453.27 1462.21 453.79 1463.06 454.25" stroke-linecap="round" />
</g>
</svg>